<svg xmlns="http://www.w3.org/2000/svg" viewBox="0 0 2513.441 713.928"><defs><style>.a{fill:#48484a;}</style></defs><title>Aspen Creek_Logo_Horizontal_1_SVG_3</title><path class="a" d="M2537.653,846.7c18.61-1.7,37.251-4.862,56-3.181,98.833,2.354,195.054,49.763,258.693,125.163a357.12,357.12,0,0,1,79.17,295.246c-.679,3.284-.963,6.7-2.289,9.8a599.481,599.481,0,0,0-75.219-.9c-5.865-.019-11.619,1.268-17.407,2.05-8.418.692-16.973.912-25.185,3.091a486.16,486.16,0,0,0-68.895,15.008c-71.767,21.706-140.624,52.685-213.722,70.046-37.329,9.35-75.918,14.393-114.442,13.023a285.507,285.507,0,0,1-139.764-40.788c-1.927-.821-3.129,2-1.739,3.246,27.849,34.005,68.992,54.987,111.39,64.414,35.757,7.986,72.724,9.325,109.166,6.564,14.271-1.9,28.742-2.341,42.889-5.148,34.535-5.062,68.579-12.977,102.358-21.784,41.537-10.946,83.108-21.764,124.859-31.89,15.887-2.89,31.522-6.99,47.467-9.647,25.644-5.128,51.6-8.458,77.6-11.251,40.8-2.47,82.19-3.388,122.512,4.539,13.171,3.388,26.86,4.882,39.643,9.725a11.67,11.67,0,0,1-1,2.185c-6.427.744-12.764-1.629-19.211-1.306-9.815.382-19.618-.194-29.414-.019-19.165,1.2-38.389,1.131-57.444,3.64-10.566-.174-21.041,1.449-31.587,1.41-14.807,2.534-29.911,3.239-44.564,6.653-25.87,4.119-51.314,10.669-76.4,18.209-92.574,30.694-179.891,76.758-275.349,98.781-8.936,2.768-18.364,3.33-27.436,5.529-9.24,2.444-18.88,2.373-28.2,4.364-9.111.789-18.26,2.283-27.416,1.332-5.645.007-11.231,1.8-16.876.783-4.345-.091-8.846-1.6-13.1-.2-.116.42-.349,1.255-.465,1.675,1.6,2.47,4.966,2.522,7.565,3.136,5.154.6,9.848,3.207,15.066,3.472,4.6.24,8.774,2.58,13.385,2.819,5.793.182,11.218,2.574,17.012,2.748,6.886-.058,13.592,2.3,20.5,1.19,28.3,3.421,56.565-.924,84.685-3.918A662.238,662.238,0,0,0,2666.4,1468.87c81.537-27.326,158.528-67.641,242.134-88.791,18.771-3.537,37.264-8.833,56.358-10.6a541.944,541.944,0,0,1,81.808-5.82c3.375-.329,7.915-1.565,10.023,2.063-5.729,1.694-11.885.427-17.614,2.328-23.5,3.2-46.465,9.091-69.258,15.415-23.8,7.552-47.667,15.13-70.421,25.515-11.277,4.209-22.806,7.688-34.07,11.936-1.519.756-3.187.3-4.785.381-27.758,34.568-61.563,64.4-99.926,86.736a356.952,356.952,0,0,1-297.495,29.155c-81-27.758-150.995-85.953-193.154-160.487-26.834-47.208-43.18-100.631-45.98-154.939,6.091,12.9,13.863,24.855,21.623,36.779a234.183,234.183,0,0,0,86.412,71.669c44.085,21.914,94.915,28.755,143.5,21.959,2.955-.653,7.274.55,8.877-2.735-.148-.407-.42-1.229-.562-1.642-8.328-1.436-17.077.969-25.535-.712-48.676-3.853-96.318-22.424-134.034-53.59-48.78-39.553-80.69-100.392-82.157-163.468-.938-9.563.491-19.1.452-28.664,2.238-13.934,3.123-28.489,9.467-41.337,2.12,9.919,8.509,18.047,14.2,26.174,5.736,6.712,11.077,13.805,17.569,19.819,4.4,4.856,10.352,7.895,14.781,12.725,7.624,5.063,16.152,8.942,23.045,15.092,5.276,4.177,3.912,11.606,6.007,17.348,1.681,6.679,5.6,12.5,7.617,19.088,7.662,14,15.751,27.952,26.595,39.772,5.638,4.236,9.466,10.268,14.891,14.743,6.615,7.921,15.919,12.738,23.562,19.469,16.683,10.772,34.089,20.846,52.847,27.584,7.113,1.914,14.212,5.936,21.8,4.1-2.237-3.782-6.627-6.142-7.739-10.584-.511-2.166.349-5.367,2.916-5.658,4.791-.589,9.44,1.177,14.212,1.267,17.808.621,35.667,1.183,53.468-.168,12.7.576,24.719-4.048,37.218-5.386,7.126-.5,13.566-4.132,20.692-4.585,3.562-.433,7.552-.562,10.358-3.116-.672-3.272-3.44-6.667-1.6-10,2.16-2.865,5.845-4.022,8.154-6.77,4.39-5.522,10.772-8.962,15.182-14.477,6.02-5.057,11.477-10.818,18.292-14.859,14.607-12.9,33.016-19.838,50.487-27.791,2.768-1.235,8.3-2.373,6.6-6.583-1.229-5.509-10.01-5.638-9.454-11.645,3.039-5.477,10.281-4.96,15.286-7.54,5.541-2.961,12.046-2.528,17.846-4.707,5.367-2.295,11.147-3.032,16.909-3.479,11.619-2.418,23.368-4.565,35.285-4.5,8.212-1.358,16.449.213,24.687.1,2.69.012,2.806-3.382,3.123-5.335,1.669-9.085-4.907-16.786-5.412-25.638a16.782,16.782,0,0,0-3.685-10.636c-4.2-10.773-8.555-21.733-15.713-30.94-2.5-2.432-5.412-4.449-7.442-7.346-3.078-4.4-7.96-7.177-10.863-11.716a3.426,3.426,0,0,1,.323-4.455c4.067-2.645,9.79,1.351,13.508-2.089-1.688-5.431-7.32-8.988-11.135-13.12-12.065-13.707-26.517-25.107-41.609-35.291-9.453-5.386-18.874-10.837-28.431-16.036-4.448-1.991-9.537-2.586-13.559-5.483a3.3,3.3,0,0,1-1.17-3.737c1.9-2.891,6.75-2.761,7.752-6.376-2.6-2.793-6.621-3.278-9.873-4.972-13.469-6.259-27.617-10.74-41.926-14.5-8.283-.814-16.088-4.222-24.448-4.526-10.669-1.94-21.4-4.293-32.317-4.119-3.583-.239-7.844-.433-10.359-3.375-1.028-3.841,3.324-5.748,4.778-8.736-4.015-3.595-9.524-.879-14.2-.775-14.782.374-29.692,1.319-44.06,5.069-7.074.543-14.322.543-21.079,3.058-7.165,2.651-15.111,2.2-22.049,5.516-4.5,1.526-8.975,3.692-13.812,3.679a4.346,4.346,0,0,1-4.306-2.664c-.382-2.955,1.467-5.677,1.261-8.613-.938-1.532-2.774-1.577-4.268-.931-7.216,2.5-14.574,4.811-21.318,8.432-13.463,8.884-28.593,15.447-40.439,26.569-8.464,6.02-14.691,14.529-21.506,22.256-4.707,4.558-7.1,10.779-10.831,16.049-3.524,4.817-4.72,10.772-7.054,16.178-2.153,5.114-3.77,10.513-3.369,16.119-1.242,10.43-.284,21.519,4.895,30.83,1.494,2.988,1.662,6.783,4.533,8.924,2.793,2.243,4.041,5.761,6.595,8.211,9.208,7.947,19.094,15.985,31.1,19.069,7.146,3.071,14.944,3.938,22.276,6.466,20.439,2.444,41.13,1.461,61.615-.3,8.807-.3,17.025-3.789,25.651-5.2,6.491-2.121,13.1-3.893,19.643-5.826,6.156-3.265,13.088-4.429,19.437-7.216,8.619-2.613,16.5-7.113,24.817-10.462,6.22-1.895,11.82-5.3,17.9-7.572,8.748-3.046,18.163-4.817,26.026-9.938,5.3-1.391,10.578-2.826,15.738-4.688,15.693-3.007,31.6-6.686,47.687-4.7,11.846,1.94,24.254,2.748,34.917,8.839,6.155,1.895,11.16,5.936,16.747,8.956a14.591,14.591,0,0,1-.143,2.6c-4.1.686-7.985-.866-11.774-2.146-8.387-1.908-17.045-1.4-25.541-2.251-6.751-.717-13.456.692-20.142,1.358-6.233.9-12.783.511-18.583,3.324a213.407,213.407,0,0,0-36.191,15.441c-8.457,7.132-19.165,10.643-28.25,16.837-8.729,3.8-16.54,9.447-25.534,12.635-12.874,5.974-26.291,10.675-39.663,15.337-6.44,2.755-13.611,3.117-20.019,6.02-7.507,2.141-15.311,3.123-22.805,5.386-20.375,2.024-40.872,4.843-61.382,3.227-10.566-1-21.519-.084-31.69-3.66-2.865-.776-5.884-.957-8.671-2.037-8.639-3.989-18.435-4.985-26.653-10.009-10.411-4.8-19.12-12.408-28.677-18.6-9.557-8.949-17.433-19.56-24.312-30.681-3.337-7.6-7.915-15.027-8.186-23.575-.563-9.693-3.531-19.424-1.352-29.091,1.481-8.716.039-18.383,5.024-26.168,2.05-3.278,1.19-7.514,3.376-10.74,2.5-3.893,4.1-8.361,7.222-11.852,25.981-31.147,56.843-58.641,92.38-78.427,43.245-25.541,91.74-41.5,141.354-48.586" transform="translate(-543.279 -843.036)"/><path class="a" d="M788.928,1192.976H748.9l-30.192-46.215H617.133l-30.186,46.215H546.923L667.929,1007.72Zm-85.753-70L667.929,1069l-35.266,53.977Z" transform="translate(-543.279 -843.036)"/><path class="a" d="M788.928,1192.976H748.9l-30.192-46.215H617.133l-30.186,46.215H546.923L667.929,1007.72Zm-85.753-70L667.929,1069l-35.266,53.977Z" transform="translate(-543.279 -843.036)"/><path class="a" d="M1078.259,1140.815c0,28.806-36.219,52.163-80.916,52.163s-80.916-23.357-80.916-52.163h36.895c0,15.655,19.743,28.378,44.021,28.378s44.026-12.723,44.026-28.378c0-12.034-19.755-19.3-52.307-29.844-16.3-5.278-33.143-10.732-46.5-17.942-17.337-9.365-26.13-20.518-26.13-33.143,0-28.813,36.225-52.163,80.916-52.163s80.916,23.35,80.916,52.163h-36.89c0-15.655-19.742-28.392-44.026-28.392s-44.021,12.737-44.021,28.392c0,12.033,19.756,19.3,52.308,29.837,16.3,5.278,33.143,10.732,46.505,17.949,17.337,9.358,26.124,20.511,26.124,33.143" transform="translate(-543.279 -843.036)"/><path class="a" d="M1078.259,1140.815c0,28.806-36.219,52.163-80.916,52.163s-80.916-23.357-80.916-52.163h36.895c0,15.655,19.743,28.378,44.021,28.378s44.026-12.723,44.026-28.378c0-12.034-19.755-19.3-52.307-29.844-16.3-5.278-33.143-10.732-46.5-17.942-17.337-9.365-26.13-20.518-26.13-33.143,0-28.813,36.225-52.163,80.916-52.163s80.916,23.35,80.916,52.163h-36.89c0-15.655-19.742-28.392-44.026-28.392s-44.021,12.737-44.021,28.392c0,12.033,19.756,19.3,52.308,29.837,16.3,5.278,33.143,10.732,46.505,17.949C1069.472,1117.03,1078.259,1128.183,1078.259,1140.815Z" transform="translate(-543.279 -843.036)"/><path class="a" d="M1418.092,1059.883c0,28.806-36.232,52.163-80.916,52.163h-77.985v80.929H1222.3V1007.72h114.874c44.684,0,80.916,23.357,80.916,52.163m-36.889,0c0-15.655-19.756-28.385-44.027-28.385h-77.985v56.77h77.985c24.271,0,44.027-12.737,44.027-28.385" transform="translate(-543.279 -843.036)"/><path class="a" d="M1418.092,1059.883c0,28.806-36.232,52.163-80.916,52.163h-77.985v80.929H1222.3V1007.72h114.874C1381.86,1007.72,1418.092,1031.077,1418.092,1059.883Zm-36.889,0c0-15.655-19.756-28.385-44.027-28.385h-77.985v56.77h77.985C1361.447,1088.268,1381.2,1075.531,1381.2,1059.883Z" transform="translate(-543.279 -843.036)"/><polygon class="a" points="1055.438 188.459 1055.438 245.42 1147.599 245.42 1147.599 269.204 1055.438 269.204 1055.438 326.158 1177.351 326.158 1177.351 349.943 1018.549 349.943 1018.549 164.681 1177.351 164.681 1177.351 188.459 1055.438 188.459"/><polygon class="a" points="1055.438 188.459 1055.438 245.42 1147.599 245.42 1147.599 269.204 1055.438 269.204 1055.438 326.158 1177.351 326.158 1177.351 349.943 1018.549 349.943 1018.549 164.681 1177.351 164.681 1177.351 188.459 1055.438 188.459"/><polygon class="a" points="1556.346 164.683 1556.346 349.938 1358.025 222.097 1358.025 349.938 1321.142 349.938 1321.142 164.683 1519.456 292.531 1519.456 164.683 1556.346 164.683"/><polygon class="a" points="1556.346 164.683 1556.346 349.938 1358.025 222.097 1358.025 349.938 1321.142 349.938 1321.142 164.683 1519.456 292.531 1519.456 164.683 1556.346 164.683"/><path class="a" d="M750.576,1388.133l9.317,5.244c-23.689,11.141-53.293,17.209-84.543,17.209-35.274,0-68.436-7.722-93.389-21.76s-38.682-32.7-38.682-52.552,13.737-38.514,38.682-52.552,58.115-21.766,93.389-21.766c31.25,0,60.854,6.075,84.543,17.215l-9.317,5.252c-21.189-9.768-47.487-15.088-75.226-15.088-31.776,0-61.64,6.967-84.113,19.611S556.4,1318.4,556.4,1336.267c0,17.889,12.363,34.692,34.836,47.336s52.337,19.6,84.113,19.6c27.739,0,54.037-5.313,75.226-15.074" transform="translate(-543.279 -843.036)"/><path class="a" d="M750.576,1388.133l9.317,5.244c-23.689,11.141-53.293,17.209-84.543,17.209-35.274,0-68.436-7.722-93.389-21.76s-38.682-32.7-38.682-52.552,13.737-38.514,38.682-52.552,58.115-21.766,93.389-21.766c31.25,0,60.854,6.075,84.543,17.215l-9.317,5.252c-21.189-9.768-47.487-15.088-75.226-15.088-31.776,0-61.64,6.967-84.113,19.611S556.4,1318.4,556.4,1336.267c0,17.889,12.363,34.692,34.836,47.336s52.337,19.6,84.113,19.6C703.089,1403.207,729.387,1397.894,750.576,1388.133Z" transform="translate(-543.279 -843.036)"/><path class="a" d="M1055.8,1340.735l62.064,69.856H1103.2l-62.9-70.8H965.848v70.8H952.733V1261.955h103.19c38.143,0,69.161,17.462,69.161,38.92,0,8.937-5.506,17.654-15.506,24.559-9.863,6.817-23.648,11.594-38.812,13.461Zm.123-8.32c30.909,0,56.046-14.147,56.046-31.54s-25.137-31.535-56.046-31.535H965.848v63.075Z" transform="translate(-543.279 -843.036)"/><path class="a" d="M1055.8,1340.735l62.064,69.856H1103.2l-62.9-70.8H965.848v70.8H952.733V1261.955h103.19c38.143,0,69.161,17.462,69.161,38.92,0,8.937-5.506,17.654-15.506,24.559-9.863,6.817-23.648,11.594-38.812,13.461Zm.123-8.32c30.909,0,56.046-14.147,56.046-31.54s-25.137-31.535-56.046-31.535H965.848v63.075Z" transform="translate(-543.279 -843.036)"/><polygon class="a" points="787.485 426.301 787.485 489.547 879.842 489.547 879.842 496.926 787.485 496.926 787.485 560.173 909.657 560.173 909.657 567.552 774.37 567.552 774.37 418.922 909.657 418.922 909.657 426.301 787.485 426.301"/><polygon class="a" points="787.485 426.301 787.485 489.547 879.842 489.547 879.842 496.926 787.485 496.926 787.485 560.173 909.657 560.173 909.657 567.552 774.37 567.552 774.37 418.922 909.657 418.922 909.657 426.301 787.485 426.301"/><polygon class="a" points="1115.422 426.301 1115.422 489.547 1207.772 489.547 1207.772 496.926 1115.422 496.926 1115.422 560.173 1237.595 560.173 1237.595 567.552 1102.307 567.552 1102.307 418.922 1237.595 418.922 1237.595 426.301 1115.422 426.301"/><polygon class="a" points="1115.422 426.301 1115.422 489.547 1207.772 489.547 1207.772 496.926 1115.422 496.926 1115.422 560.173 1237.595 560.173 1237.595 567.552 1102.307 567.552 1102.307 418.922 1237.595 418.922 1237.595 426.301 1115.422 426.301"/><path class="a" d="M1986.636,1410.588h-13.122v-148.63h13.122Zm16.639-74.312,103.143,74.312h-16.646l-103.136-74.312,103.136-74.318h16.646Z" transform="translate(-543.279 -843.036)"/><path class="a" d="M1986.636,1410.588h-13.122v-148.63h13.122Zm16.639-74.312,103.143,74.312h-16.646l-103.136-74.312,103.136-74.318h16.646Z" transform="translate(-543.279 -843.036)"/></svg>